<svg width="32" height="32" viewBox="0 0 32 32" fill="none" xmlns="http://www.w3.org/2000/svg">
<path d="M16.0002 29.3329C16.0002 29.3329 5.3335 24.0929 5.3335 13.3329C5.3335 10.504 6.45713 7.79085 8.45752 5.79047C10.4579 3.79008 13.1712 2.66626 16.0002 2.66626C18.8291 2.66626 21.5421 3.79008 23.5425 5.79047C25.5429 7.79085 26.6668 10.504 26.6668 13.3329C26.6668 24.0929 16.0002 29.3329 16.0002 29.3329Z" fill="#6E6BD9"/>
<path d="M16 17.3335C18.2091 17.3335 20 15.5426 20 13.3335C20 11.1244 18.2091 9.3335 16 9.3335C13.7909 9.3335 12 11.1244 12 13.3335C12 15.5426 13.7909 17.3335 16 17.3335Z" fill="white" stroke="#6E6BD9" stroke-width="1.5" stroke-miterlimit="10"/>
</svg>
