<svg aria-hidden="true" style="position: absolute; width: 0; height: 0; overflow: hidden;" version="1.1"
  xmlns="http://www.w3.org/2000/svg" xmlns:xlink="http://www.w3.org/1999/xlink">
  <defs>
<symbol id="icon-arrow-left" viewBox="0 0 32 32">
<path fill="none" stroke="inherit" stroke-width="3" stroke-miterlimit="4" stroke-linecap="round" stroke-linejoin="round" d="M22.5 3.167l-13 12.917 13 12.917"></path>
</symbol>
<symbol id="icon-arrow-right" viewBox="0 0 32 32">
<path fill="none" stroke="inherit" stroke-width="3" stroke-miterlimit="4" stroke-linecap="round" stroke-linejoin="round" d="M9.5 28.833l13-12.917-13-12.917"></path>
</symbol>
<symbol id="icon-close" viewBox="0 0 32 32">
<path fill="none" stroke="inherit" stroke-width="3" stroke-miterlimit="4" stroke-linecap="round" stroke-linejoin="round"  d="M28.169 3.834l-24.5 24.5"></path>
<path fill="none" stroke="inherit" stroke-width="3" stroke-miterlimit="4" stroke-linecap="round" stroke-linejoin="round" d="M28.169 28.334l-24.5-24.5"></path>
</symbol>
<symbol id="icon-email" viewBox="0 0 32 32">
<path fill="inherit" stroke="#inherit" stroke-width="2.4" stroke-miterlimit="10" stroke-linecap="butt" stroke-linejoin="miter" d="M26.373 26.68h-20.746c-0.797-0.014-1.556-0.343-2.111-0.915s-0.86-1.341-0.849-2.138v-15.24c-0.011-0.797 0.295-1.566 0.849-2.138s1.314-0.901 2.111-0.915h20.746c0.797 0.014 1.556 0.343 2.111 0.915s0.86 1.341 0.85 2.138v15.24c0.011 0.797-0.295 1.566-0.85 2.138s-1.314 0.901-2.111 0.915z"></path>
<path fill="none" stroke="inherit" stroke-width="2.4" stroke-miterlimit="4" stroke-linecap="butt" stroke-linejoin="round" d="M2.667 10.667l13.333 5.333 13.333-5.333"></path>
</symbol>
<symbol id="icon-navigate" viewBox="0 0 32 32">
<path fill="inherit" d="M16 29.333c0 0-10.667-5.24-10.667-16 0-2.829 1.124-5.542 3.124-7.542s4.714-3.124 7.543-3.124c2.829 0 5.542 1.124 7.542 3.124s3.124 4.713 3.124 7.542c0 10.76-10.667 16-10.667 16z"></path>
<path fill="#fff" stroke="inherit" stroke-width="1.0" stroke-miterlimit="10" stroke-linecap="butt" stroke-linejoin="miter" d="M16 17.334c2.209 0 4-1.791 4-4s-1.791-4-4-4c-2.209 0-4 1.791-4 4s1.791 4 4 4z"></path>
</symbol>
<symbol id="icon-phone" viewBox="0 0 32 32">
<path fill="inherit" stroke="inherit" d="M13.567 18.311c0.987 1.027 2.049 1.979 3.177 2.849 0.498 0.382 1.101 0.602 1.728 0.63s1.247-0.137 1.777-0.473l0.755-0.47c0.545-0.373 1.194-0.564 1.854-0.546s1.297 0.244 1.821 0.645l3.533 2.849c0.171 0.134 0.311 0.303 0.412 0.495s0.16 0.403 0.174 0.62c0.013 0.217-0.019 0.434-0.096 0.637s-0.195 0.388-0.348 0.542c-1.361 1.364-3.114 2.269-5.014 2.588s-3.853 0.037-5.584-0.808c-2.938-1.447-5.615-3.372-7.921-5.698-2.326-2.3-4.252-4.972-5.698-7.907-0.843-1.734-1.127-3.687-0.81-5.588s1.217-3.658 2.576-5.025c0.153-0.154 0.337-0.273 0.539-0.351s0.42-0.111 0.636-0.099c0.217 0.012 0.428 0.070 0.621 0.169s0.362 0.239 0.497 0.409l2.849 3.547c0.394 0.499 0.625 1.107 0.66 1.742s-0.125 1.265-0.461 1.805l-0.556 0.869c-0.334 0.53-0.499 1.149-0.474 1.774s0.24 1.229 0.616 1.73c0.852 1.126 1.78 2.193 2.778 3.191l-0.043-0.128z"></path>
</symbol>
<symbol id="icon-time" viewBox="0 0 32 32">
<path fill="inherit" stroke="inherit" d="M16 28c6.627 0 12-5.373 12-12s-5.373-12-12-12c-6.627 0-12 5.373-12 12s5.373 12 12 12z"></path>
<path fill="none" stroke="inherit" stroke-width="2.4" stroke-miterlimit="4" stroke-linecap="round" stroke-linejoin="round" d="M16 9v7h7"></path>
</symbol>
  </defs>
</svg>