<svg aria-hidden="true" style="position: absolute; width: 0; height: 0; overflow: hidden;" version="1.1"
  xmlns="http://www.w3.org/2000/svg" xmlns:xlink="http://www.w3.org/1999/xlink">
  <defs>
<symbol id="icon-arrow-left" viewBox="0 0 32 32">
<path fill="none" stroke="inherit" stroke-width="3" stroke-miterlimit="4" stroke-linecap="round" stroke-linejoin="round" d="M22.5 3.167l-13 12.917 13 12.917"></path>
</symbol>
<symbol id="icon-arrow-right" viewBox="0 0 32 32">
<path fill="none" stroke="inherit" stroke-width="3" stroke-miterlimit="4" stroke-linecap="round" stroke-linejoin="round" d="M9.5 28.833l13-12.917-13-12.917"></path>
</symbol>
<symbol id="icon-close" viewBox="0 0 32 32">
<path fill="none" stroke="inherit" stroke-width="4" stroke-miterlimit="4" stroke-linecap="round" stroke-linejoin="round" d="M28.169 3.834l-24.5 24.5"></path>
<path fill="none" stroke="inherit" stroke-width="4" stroke-miterlimit="4" stroke-linecap="round" stroke-linejoin="round" d="M28.169 28.334l-24.5-24.5"></path>
</symbol>
<symbol id="icon-email" viewBox="0 0 32 32">
<path fill="inherit" stroke="#inherit" stroke-width="2.4" stroke-miterlimit="10" stroke-linecap="butt" stroke-linejoin="miter" d="M26.373 26.68h-20.746c-0.797-0.014-1.556-0.343-2.111-0.915s-0.86-1.341-0.849-2.138v-15.24c-0.011-0.797 0.295-1.566 0.849-2.138s1.314-0.901 2.111-0.915h20.746c0.797 0.014 1.556 0.343 2.111 0.915s0.86 1.341 0.85 2.138v15.24c0.011 0.797-0.295 1.566-0.85 2.138s-1.314 0.901-2.111 0.915z"></path>
<path fill="none" stroke="inherit" stroke-width="2.4" stroke-miterlimit="4" stroke-linecap="butt" stroke-linejoin="round" d="M2.667 10.667l13.333 5.333 13.333-5.333"></path>
</symbol>
<symbol id="icon-navigate" viewBox="0 0 32 32">
<path fill="inherit" d="M16 29.333c0 0-10.667-5.24-10.667-16 0-2.829 1.124-5.542 3.124-7.542s4.714-3.124 7.543-3.124c2.829 0 5.542 1.124 7.542 3.124s3.124 4.713 3.124 7.542c0 10.76-10.667 16-10.667 16z"></path>
<path fill="#fff" stroke="inherit" stroke-width="1.0" stroke-miterlimit="10" stroke-linecap="butt" stroke-linejoin="miter" d="M16 17.334c2.209 0 4-1.791 4-4s-1.791-4-4-4c-2.209 0-4 1.791-4 4s1.791 4 4 4z"></path>
</symbol>
<symbol id="icon-navigate2" viewBox="0 0 32 32">
<path fill="inherit" d="M16 29.333c0 0-10.667-5.24-10.667-16 0-2.829 1.124-5.542 3.124-7.542s4.714-3.124 7.543-3.124c2.829 0 5.542 1.124 7.542 3.124s3.124 4.713 3.124 7.542c0 10.76-10.667 16-10.667 16z"></path>
<path fill="#6e6bd9" stroke="inherit" stroke-width="1.0" stroke-miterlimit="10" stroke-linecap="butt" stroke-linejoin="miter" d="M16 17.334c2.209 0 4-1.791 4-4s-1.791-4-4-4c-2.209 0-4 1.791-4 4s1.791 4 4 4z"></path>
</symbol>
<symbol id="icon-phone" viewBox="0 0 32 32">
<path fill="inherit" stroke="inherit" d="M13.567 18.311c0.987 1.027 2.049 1.979 3.177 2.849 0.498 0.382 1.101 0.602 1.728 0.63s1.247-0.137 1.777-0.473l0.755-0.47c0.545-0.373 1.194-0.564 1.854-0.546s1.297 0.244 1.821 0.645l3.533 2.849c0.171 0.134 0.311 0.303 0.412 0.495s0.16 0.403 0.174 0.62c0.013 0.217-0.019 0.434-0.096 0.637s-0.195 0.388-0.348 0.542c-1.361 1.364-3.114 2.269-5.014 2.588s-3.853 0.037-5.584-0.808c-2.938-1.447-5.615-3.372-7.921-5.698-2.326-2.3-4.252-4.972-5.698-7.907-0.843-1.734-1.127-3.687-0.81-5.588s1.217-3.658 2.576-5.025c0.153-0.154 0.337-0.273 0.539-0.351s0.42-0.111 0.636-0.099c0.217 0.012 0.428 0.070 0.621 0.169s0.362 0.239 0.497 0.409l2.849 3.547c0.394 0.499 0.625 1.107 0.66 1.742s-0.125 1.265-0.461 1.805l-0.556 0.869c-0.334 0.53-0.499 1.149-0.474 1.774s0.24 1.229 0.616 1.73c0.852 1.126 1.78 2.193 2.778 3.191l-0.043-0.128z"></path>
</symbol>
<symbol id="icon-time" viewBox="0 0 32 32">
<path fill="inherit" stroke="inherit" d="M16 28c6.627 0 12-5.373 12-12s-5.373-12-12-12c-6.627 0-12 5.373-12 12s5.373 12 12 12z"></path>
<path fill="none" stroke="inherit" stroke-width="2.4" stroke-miterlimit="4" stroke-linecap="round" stroke-linejoin="round" d="M16 9v7h7"></path>
</symbol>
<symbol id="icon-logo-dent" viewBox="0 0 101 32">
<path fill="#4b5563" style="fill: var(--color1, #4b5563)" d="M4.882 24.435c-0.972 0-1.83-0.146-2.575-0.437-0.729-0.291-1.295-0.688-1.7-1.19-0.405-0.518-0.607-1.085-0.607-1.7v-0.267c0-0.162 0.081-0.243 0.243-0.243h1.749c0.162 0 0.243 0.081 0.243 0.243v0.121c0 0.453 0.243 0.85 0.729 1.19 0.502 0.34 1.133 0.51 1.895 0.51 0.729 0 1.32-0.154 1.773-0.461 0.453-0.324 0.68-0.729 0.68-1.214 0-0.47-0.21-0.818-0.631-1.044-0.421-0.243-1.101-0.494-2.040-0.753-0.923-0.259-1.7-0.518-2.332-0.777-0.615-0.275-1.142-0.656-1.579-1.142-0.421-0.502-0.632-1.142-0.632-1.919 0-1.085 0.421-1.943 1.263-2.575 0.858-0.648 1.992-0.972 3.4-0.972 0.939 0 1.765 0.154 2.478 0.461 0.729 0.291 1.287 0.704 1.676 1.239s0.583 1.134 0.583 1.797v0.073c0 0.162-0.081 0.243-0.243 0.243h-1.7c-0.162 0-0.243-0.081-0.243-0.243v-0.073c0-0.47-0.235-0.858-0.704-1.166-0.453-0.324-1.077-0.486-1.87-0.486-0.712 0-1.295 0.138-1.749 0.413-0.437 0.275-0.656 0.648-0.656 1.117s0.211 0.826 0.632 1.069c0.437 0.243 1.133 0.502 2.089 0.777 0.939 0.259 1.716 0.518 2.332 0.777 0.632 0.243 1.166 0.615 1.603 1.117 0.437 0.486 0.656 1.125 0.656 1.919 0 1.101-0.437 1.975-1.312 2.623-0.858 0.648-2.008 0.972-3.449 0.972z"></path>
<path fill="#4b5563" style="fill: var(--color1, #4b5563)" d="M24.005 11.756c1.231 0 2.202 0.372 2.915 1.117 0.713 0.729 1.069 1.749 1.069 3.060v8.113c0 0.162-0.081 0.243-0.243 0.243h-1.822c-0.162 0-0.243-0.081-0.243-0.243v-7.627c0-0.81-0.227-1.449-0.68-1.919-0.437-0.486-1.028-0.729-1.773-0.729s-1.352 0.235-1.822 0.704c-0.47 0.47-0.704 1.101-0.704 1.895v7.675c0 0.162-0.081 0.243-0.243 0.243h-1.822c-0.162 0-0.243-0.081-0.243-0.243v-7.627c0-0.81-0.227-1.449-0.68-1.919-0.437-0.486-1.028-0.729-1.773-0.729s-1.344 0.235-1.797 0.704c-0.437 0.47-0.656 1.101-0.656 1.895v7.675c0 0.162-0.081 0.243-0.243 0.243h-1.846c-0.162 0-0.243-0.081-0.243-0.243v-11.877c0-0.162 0.081-0.243 0.243-0.243h1.846c0.162 0 0.243 0.081 0.243 0.243v0.826c0 0.032 0.008 0.057 0.024 0.073 0.032 0.016 0.065 0.008 0.097-0.024 0.713-0.858 1.749-1.287 3.109-1.287 0.826 0 1.53 0.162 2.113 0.486 0.583 0.308 1.036 0.769 1.36 1.385 0.049 0.065 0.097 0.065 0.146 0 0.389-0.632 0.899-1.101 1.53-1.409 0.648-0.308 1.36-0.461 2.137-0.461z"></path>
<path fill="#4b5563" style="fill: var(--color1, #4b5563)" d="M31.417 9.983c-0.453 0-0.826-0.146-1.117-0.437s-0.437-0.664-0.437-1.117c0-0.453 0.146-0.826 0.437-1.117s0.664-0.437 1.117-0.437c0.453 0 0.826 0.146 1.117 0.437s0.437 0.664 0.437 1.117-0.146 0.826-0.437 1.117c-0.291 0.291-0.664 0.437-1.117 0.437zM30.446 24.265c-0.162 0-0.243-0.081-0.243-0.243v-11.853c0-0.162 0.081-0.243 0.243-0.243h1.846c0.162 0 0.243 0.081 0.243 0.243v11.853c0 0.162-0.081 0.243-0.243 0.243h-1.846z"></path>
<path fill="#4b5563" style="fill: var(--color1, #4b5563)" d="M35.228 24.289c-0.162 0-0.243-0.081-0.243-0.243v-16.517c0-0.162 0.081-0.243 0.243-0.243h1.846c0.162 0 0.243 0.081 0.243 0.243v16.517c0 0.162-0.081 0.243-0.243 0.243h-1.846z"></path>
<path fill="#4b5563" style="fill: var(--color1, #4b5563)" d="M49.494 16.565c0.065 0.664 0.089 1.409 0.073 2.235 0 0.162-0.081 0.243-0.243 0.243h-7.748c-0.065 0-0.097 0.032-0.097 0.097 0 0.551 0.049 0.972 0.146 1.263 0.178 0.648 0.534 1.158 1.069 1.53 0.551 0.356 1.239 0.534 2.065 0.534 1.198 0 2.121-0.494 2.769-1.482 0.081-0.162 0.186-0.186 0.316-0.073l1.384 0.923c0.113 0.097 0.138 0.202 0.073 0.316-0.453 0.729-1.101 1.303-1.943 1.724-0.826 0.421-1.765 0.632-2.818 0.632-1.182 0-2.178-0.259-2.988-0.777s-1.417-1.255-1.822-2.21c-0.389-0.955-0.583-2.113-0.583-3.473 0-1.182 0.089-2.081 0.267-2.696 0.291-1.117 0.874-2 1.749-2.647s1.935-0.972 3.182-0.972c1.636 0 2.858 0.413 3.668 1.239 0.81 0.81 1.303 2.008 1.482 3.595zM44.345 13.748c-0.696 0-1.271 0.178-1.724 0.534-0.453 0.34-0.761 0.802-0.923 1.384-0.113 0.356-0.186 0.81-0.219 1.36 0 0.065 0.032 0.097 0.097 0.097h5.562c0.065 0 0.097-0.032 0.097-0.097-0.032-0.534-0.081-0.931-0.146-1.19-0.162-0.632-0.486-1.133-0.972-1.506-0.47-0.389-1.061-0.583-1.773-0.583z"></path>
<path fill="#6e6bd9" style="fill: var(--color2, #6e6bd9)" d="M61.409 7.483c0-0.162 0.081-0.243 0.243-0.243h1.846c0.162 0 0.243 0.081 0.243 0.243v16.517c0 0.162-0.081 0.243-0.243 0.243h-1.846c-0.162 0-0.243-0.081-0.243-0.243v-0.802c0-0.032-0.016-0.057-0.049-0.073-0.016-0.016-0.040-0.008-0.073 0.024-0.356 0.405-0.777 0.721-1.263 0.947s-1.012 0.34-1.579 0.34c-1.166 0-2.137-0.283-2.915-0.85-0.761-0.583-1.32-1.401-1.676-2.453-0.308-0.858-0.461-1.895-0.461-3.109 0-1.133 0.13-2.113 0.389-2.939 0.34-1.069 0.899-1.903 1.676-2.502s1.773-0.899 2.988-0.899c0.551 0 1.069 0.113 1.555 0.34 0.502 0.211 0.931 0.518 1.287 0.923 0.032 0.032 0.057 0.040 0.073 0.024 0.032-0.016 0.049-0.040 0.049-0.073v-5.416zM60.802 21.109c0.372-0.68 0.559-1.7 0.559-3.060s-0.202-2.396-0.607-3.109c-0.47-0.826-1.158-1.239-2.065-1.239-0.972 0-1.692 0.389-2.162 1.166-0.518 0.81-0.777 1.878-0.777 3.206 0 1.247 0.202 2.251 0.607 3.012 0.47 0.891 1.239 1.336 2.307 1.336 0.939 0 1.652-0.437 2.137-1.312z"></path>
<path fill="#6e6bd9" style="fill: var(--color2, #6e6bd9)" d="M76.073 16.518c0.065 0.664 0.089 1.409 0.073 2.235 0 0.162-0.081 0.243-0.243 0.243h-7.748c-0.065 0-0.097 0.032-0.097 0.097 0 0.55 0.049 0.972 0.146 1.263 0.178 0.648 0.534 1.158 1.069 1.53 0.55 0.356 1.239 0.534 2.065 0.534 1.198 0 2.121-0.494 2.769-1.482 0.081-0.162 0.186-0.186 0.316-0.073l1.384 0.923c0.113 0.097 0.138 0.202 0.073 0.316-0.453 0.729-1.101 1.303-1.943 1.724-0.826 0.421-1.765 0.631-2.818 0.631-1.182 0-2.178-0.259-2.988-0.777s-1.417-1.255-1.822-2.21c-0.389-0.955-0.583-2.113-0.583-3.473 0-1.182 0.089-2.081 0.267-2.696 0.291-1.117 0.874-2 1.749-2.648s1.935-0.972 3.182-0.972c1.635 0 2.858 0.413 3.668 1.239 0.81 0.81 1.304 2.008 1.482 3.595zM70.924 13.701c-0.696 0-1.271 0.178-1.725 0.534-0.453 0.34-0.761 0.801-0.923 1.384-0.113 0.356-0.186 0.81-0.219 1.36 0 0.065 0.032 0.097 0.097 0.097h5.562c0.065 0 0.097-0.032 0.097-0.097-0.032-0.534-0.081-0.931-0.146-1.19-0.162-0.631-0.486-1.133-0.972-1.506-0.47-0.389-1.061-0.583-1.773-0.583z"></path>
<path fill="#6e6bd9" style="fill: var(--color2, #6e6bd9)" d="M83.509 11.709c1.328 0 2.38 0.389 3.158 1.166 0.777 0.761 1.166 1.797 1.166 3.109v8.015c0 0.162-0.081 0.243-0.243 0.243h-1.846c-0.162 0-0.243-0.081-0.243-0.243v-7.554c0-0.81-0.235-1.465-0.704-1.967s-1.093-0.753-1.87-0.753c-0.761 0-1.385 0.251-1.87 0.753s-0.729 1.15-0.729 1.943v7.578c0 0.162-0.081 0.243-0.243 0.243h-1.846c-0.162 0-0.243-0.081-0.243-0.243v-11.877c0-0.162 0.081-0.243 0.243-0.243h1.846c0.162 0 0.243 0.081 0.243 0.243v0.874c0 0.032 0.008 0.057 0.024 0.073 0.032 0.016 0.057 0.008 0.073-0.024 0.696-0.891 1.725-1.336 3.085-1.336z"></path>
<path fill="#6e6bd9" style="fill: var(--color2, #6e6bd9)" d="M96.163 13.555c0 0.162-0.081 0.243-0.243 0.243h-2.623c-0.065 0-0.097 0.032-0.097 0.097v6.437c0 0.68 0.154 1.174 0.462 1.482 0.308 0.291 0.785 0.437 1.433 0.437h0.704c0.162 0 0.243 0.081 0.243 0.243v1.506c0 0.162-0.081 0.243-0.243 0.243-0.518 0.032-0.891 0.049-1.117 0.049-1.231 0-2.162-0.219-2.793-0.656-0.615-0.453-0.923-1.279-0.923-2.477v-7.262c0-0.065-0.032-0.097-0.097-0.097h-1.482c-0.162 0-0.243-0.081-0.243-0.243v-1.433c0-0.162 0.081-0.243 0.243-0.243h1.482c0.065 0 0.097-0.032 0.097-0.097v-2.866c0-0.162 0.081-0.243 0.243-0.243h1.749c0.162 0 0.243 0.081 0.243 0.243v2.866c0 0.065 0.032 0.097 0.097 0.097h2.623c0.162 0 0.243 0.081 0.243 0.243v1.433z"></path>
<path fill="#4b5563" style="fill: var(--color1, #4b5563)" d="M26.815 20.694c0.644 0 1.166 0.522 1.166 1.166v3.099c0 1.358-0.444 2.897-1.714 3.891-1.479 1.158-3.618 2.196-6.204 2.25-2.609 0.054-5.545-0.896-8.58-3.497-0.489-0.419-0.545-1.155-0.126-1.644s1.155-0.546 1.644-0.126c2.664 2.283 5.057 2.977 7.014 2.936 1.98-0.041 3.645-0.838 4.815-1.755 0.52-0.407 0.82-1.14 0.82-2.055v-3.099c0-0.644 0.522-1.166 1.166-1.166z"></path>
</symbol>
  </defs>
</svg>