<svg fill="none" viewBox="0 0 80 80" xmlns="http://www.w3.org/2000/svg"><rect width="80" height="80" rx="11.429" fill="#1FA6B4"/><rect transform="rotate(90 38.75 33.125)" x="38.75" y="33.125" width="6.25" height="3.75" rx="1.875" fill="url(#r)"/><rect transform="rotate(90 46.875 33.125)" x="46.875" y="33.125" width="6.25" height="3.75" rx="1.875" fill="url(#h)"/><path d="M60.689 30.613a10.427 10.427 0 00-10.418-9.988c-5.69 0-10.33 4.562-10.426 10.252l-.363 21.518a6.25 6.25 0 006.25 6.355h9.624a6.25 6.25 0 006.244-6.513l-.911-21.624z" fill="url(#g)"/><path d="M19.316 30.536a10.347 10.347 0 0110.338-9.91c5.714 0 10.347 4.632 10.347 10.346V52.5a6.25 6.25 0 01-6.25 6.25h-9.106a6.25 6.25 0 01-6.244-6.513l.915-21.701z" fill="url(#f)"/><path d="M16.213 37.24a1.562 1.562 0 012.173-.402c2.45 1.685 10.515 5.35 21.907 5.35 11.393 0 19.045-3.665 21.278-5.318a1.562 1.562 0 111.86 2.511c-2.833 2.097-11.155 5.932-23.139 5.932-11.985 0-20.674-3.835-23.678-5.9a1.563 1.563 0 01-.402-2.173z" clip-rule="evenodd" fill="url(#e)" fill-rule="evenodd"/><path d="M63.788 37.24a1.563 1.563 0 00-2.173-.402c-2.45 1.685-10.515 5.35-21.907 5.35-11.393 0-19.045-3.665-21.278-5.318a1.563 1.563 0 10-1.86 2.511c2.832 2.097 11.155 5.932 23.139 5.932s20.674-3.835 23.677-5.9a1.563 1.563 0 00.402-2.173z" clip-rule="evenodd" fill="url(#a)" fill-opacity=".3" fill-rule="evenodd"/><path d="M63.788 37.24a1.563 1.563 0 00-2.173-.402c-2.45 1.685-10.515 5.35-21.907 5.35-11.393 0-19.045-3.665-21.278-5.318a1.563 1.563 0 10-1.86 2.511c2.832 2.097 11.155 5.932 23.139 5.932s20.674-3.835 23.677-5.9a1.563 1.563 0 00.402-2.173z" clip-rule="evenodd" fill="url(#a)" fill-opacity=".3" fill-rule="evenodd"/><path d="M23.314 38.763a1.15 1.15 0 011.573-1.183 12.086 12.086 0 008.977 0 1.15 1.15 0 011.572 1.183l-.138 1.384a29.93 29.93 0 000 5.956l.138 1.384a1.15 1.15 0 01-1.572 1.183 12.086 12.086 0 00-8.977 0 1.15 1.15 0 01-1.573-1.183l.138-1.384a29.93 29.93 0 000-5.956l-.138-1.384z" fill="#B4A9FC"/><g filter="url(#ab)"><path d="M25.625 42.5a2.5 2.5 0 012.5-2.5h2.5a2.5 2.5 0 012.5 2.5v1.25a2.5 2.5 0 01-2.5 2.5h-2.5a2.5 2.5 0 01-2.5-2.5V42.5z" fill="url(#d)"/><path d="M26.625 42.5a1.5 1.5 0 011.5-1.5h2.5a1.5 1.5 0 011.5 1.5v1.25a1.5 1.5 0 01-1.5 1.5h-2.5a1.5 1.5 0 01-1.5-1.5V42.5z" stroke="url(#c)" stroke-width="2"/></g><g filter="url(#aa)"><path d="M30.626 39.062a1.562 1.562 0 113.125 0v1.875a1.563 1.563 0 01-3.125 0v-1.875z" fill="url(#b)"/></g><g filter="url(#z)"><path d="M30.626 45.312a1.562 1.562 0 113.125 0v1.875a1.563 1.563 0 01-3.125 0v-1.875z" fill="url(#q)"/></g><g filter="url(#y)"><path d="M25 45.312a1.562 1.562 0 113.125 0v1.875a1.563 1.563 0 01-3.125 0v-1.875z" fill="url(#p)"/></g><g filter="url(#x)"><path d="M25 39.062a1.562 1.562 0 113.125 0v1.875a1.563 1.563 0 01-3.125 0v-1.875z" fill="url(#o)"/></g><path d="M44.564 38.763a1.15 1.15 0 011.573-1.183 12.086 12.086 0 008.977 0 1.15 1.15 0 011.572 1.183l-.138 1.384a29.93 29.93 0 000 5.956l.138 1.384a1.15 1.15 0 01-1.572 1.183 12.086 12.086 0 00-8.977 0 1.15 1.15 0 01-1.573-1.183l.138-1.384a29.93 29.93 0 000-5.956l-.138-1.384z" fill="#B4A9FC"/><g filter="url(#w)"><rect x="46.875" y="40" width="7.5" height="6.25" rx="3.125" fill="url(#n)"/><rect x="47.875" y="41" width="5.5" height="4.25" rx="2.125" stroke="url(#m)" stroke-width="2"/></g><g filter="url(#v)"><path d="M51.876 39.062a1.562 1.562 0 113.125 0v1.875a1.563 1.563 0 01-3.125 0v-1.875z" fill="url(#l)"/></g><g filter="url(#u)"><path d="M51.876 45.312a1.562 1.562 0 113.125 0v1.875a1.563 1.563 0 01-3.125 0v-1.875z" fill="url(#k)"/></g><g filter="url(#t)"><path d="M46.25 45.312a1.562 1.562 0 113.125 0v1.875a1.563 1.563 0 01-3.125 0v-1.875z" fill="url(#j)"/></g><g filter="url(#s)"><path d="M46.25 39.062a1.562 1.562 0 113.125 0v1.875a1.563 1.563 0 01-3.125 0v-1.875z" fill="url(#i)"/></g><defs><linearGradient id="r" x1="40.763" x2="42.121" y1="33.125" y2="33.216" gradientUnits="userSpaceOnUse"><stop stop-color="#E2E6F3" offset="0"/><stop stop-color="#D5DAF0" offset="1"/></linearGradient><linearGradient id="h" x1="48.888" x2="50.246" y1="33.125" y2="33.216" gradientUnits="userSpaceOnUse"><stop stop-color="#E2E6F3" offset="0"/><stop stop-color="#D5DAF0" offset="1"/></linearGradient><linearGradient id="g" x1="39.375" x2="53.261" y1="32.812" y2="45.411" gradientUnits="userSpaceOnUse"><stop stop-color="#F0F6F9" offset="0"/><stop stop-color="#CDDFF2" offset="1"/></linearGradient><linearGradient id="f" x1="16.875" x2="34.92" y1="30.938" y2="51.433" gradientUnits="userSpaceOnUse"><stop stop-color="#F0F6F9" offset="0"/><stop stop-color="#CDDFF2" offset="1"/></linearGradient><linearGradient id="e" x1="40" x2="39.688" y1="38.125" y2="46.25" gradientUnits="userSpaceOnUse"><stop stop-color="#E3E7F6" offset="0"/><stop stop-color="#C7CCDF" offset="1"/></linearGradient><linearGradient id="d" x1="28.638" x2="30.661" y1="39.983" y2="46.573" gradientUnits="userSpaceOnUse"><stop stop-color="#F2F5FF" offset="0"/><stop stop-color="#D6DBF1" offset="1"/></linearGradient><linearGradient id="b" x1="31.881" x2="34.405" y1="37.486" y2="41.768" gradientUnits="userSpaceOnUse"><stop stop-color="#F2F5FF" offset="0"/><stop stop-color="#F8F9FE" offset=".151"/><stop stop-color="#D6DBF1" offset="1"/></linearGradient><linearGradient id="q" x1="31.881" x2="34.405" y1="43.736" y2="48.018" gradientUnits="userSpaceOnUse"><stop stop-color="#F2F5FF" offset="0"/><stop stop-color="#F8F9FE" offset=".151"/><stop stop-color="#D6DBF1" offset="1"/></linearGradient><linearGradient id="p" x1="26.256" x2="28.78" y1="43.736" y2="48.018" gradientUnits="userSpaceOnUse"><stop stop-color="#F2F5FF" offset="0"/><stop stop-color="#F8F9FE" offset=".151"/><stop stop-color="#D6DBF1" offset="1"/></linearGradient><linearGradient id="o" x1="26.256" x2="28.78" y1="37.486" y2="41.768" gradientUnits="userSpaceOnUse"><stop stop-color="#F2F5FF" offset="0"/><stop stop-color="#F8F9FE" offset=".151"/><stop stop-color="#D6DBF1" offset="1"/></linearGradient><linearGradient id="n" x1="49.888" x2="51.911" y1="39.983" y2="46.573" gradientUnits="userSpaceOnUse"><stop stop-color="#F2F5FF" offset="0"/><stop stop-color="#D6DBF1" offset="1"/></linearGradient><linearGradient id="l" x1="53.131" x2="55.655" y1="37.486" y2="41.768" gradientUnits="userSpaceOnUse"><stop stop-color="#F2F5FF" offset="0"/><stop stop-color="#F8F9FE" offset=".151"/><stop stop-color="#D6DBF1" offset="1"/></linearGradient><linearGradient id="k" x1="53.131" x2="55.655" y1="43.736" y2="48.018" gradientUnits="userSpaceOnUse"><stop stop-color="#F2F5FF" offset="0"/><stop stop-color="#F8F9FE" offset=".151"/><stop stop-color="#D6DBF1" offset="1"/></linearGradient><linearGradient id="j" x1="47.506" x2="50.03" y1="43.736" y2="48.018" gradientUnits="userSpaceOnUse"><stop stop-color="#F2F5FF" offset="0"/><stop stop-color="#F8F9FE" offset=".151"/><stop stop-color="#D6DBF1" offset="1"/></linearGradient><linearGradient id="i" x1="47.506" x2="50.03" y1="37.486" y2="41.768" gradientUnits="userSpaceOnUse"><stop stop-color="#F2F5FF" offset="0"/><stop stop-color="#F8F9FE" offset=".151"/><stop stop-color="#D6DBF1" offset="1"/></linearGradient><filter id="ab" x="17.625" y="36" width="23.5" height="22.25" color-interpolation-filters="sRGB" filterUnits="userSpaceOnUse"><feFlood flood-opacity="0" result="BackgroundImageFix"/><feColorMatrix in="SourceAlpha" result="hardAlpha" values="0 0 0 0 0 0 0 0 0 0 0 0 0 0 0 0 0 0 127 0"/><feOffset dy="4"/><feGaussianBlur stdDeviation="4"/><feComposite in2="hardAlpha" operator="out"/><feColorMatrix values="0 0 0 0 0.148194 0 0 0 0 0.235583 0 0 0 0 0.585139 0 0 0 0.13 0"/><feBlend in2="BackgroundImageFix" result="effect1_dropShadow_50_9070"/><feBlend in="SourceGraphic" in2="effect1_dropShadow_50_9070" result="shape"/></filter><filter id="aa" x="22.626" y="33.5" width="19.125" height="21" color-interpolation-filters="sRGB" filterUnits="userSpaceOnUse"><feFlood flood-opacity="0" result="BackgroundImageFix"/><feColorMatrix in="SourceAlpha" result="hardAlpha" values="0 0 0 0 0 0 0 0 0 0 0 0 0 0 0 0 0 0 127 0"/><feOffset dy="4"/><feGaussianBlur stdDeviation="4"/><feComposite in2="hardAlpha" operator="out"/><feColorMatrix values="0 0 0 0 0.148194 0 0 0 0 0.235583 0 0 0 0 0.585139 0 0 0 0.13 0"/><feBlend in2="BackgroundImageFix" result="effect1_dropShadow_50_9070"/><feBlend in="SourceGraphic" in2="effect1_dropShadow_50_9070" result="shape"/></filter><filter id="z" x="22.626" y="39.75" width="19.125" height="21" color-interpolation-filters="sRGB" filterUnits="userSpaceOnUse"><feFlood flood-opacity="0" result="BackgroundImageFix"/><feColorMatrix in="SourceAlpha" result="hardAlpha" values="0 0 0 0 0 0 0 0 0 0 0 0 0 0 0 0 0 0 127 0"/><feOffset dy="4"/><feGaussianBlur stdDeviation="4"/><feComposite in2="hardAlpha" operator="out"/><feColorMatrix values="0 0 0 0 0.148194 0 0 0 0 0.235583 0 0 0 0 0.585139 0 0 0 0.13 0"/><feBlend in2="BackgroundImageFix" result="effect1_dropShadow_50_9070"/><feBlend in="SourceGraphic" in2="effect1_dropShadow_50_9070" result="shape"/></filter><filter id="y" x="17" y="39.75" width="19.125" height="21" color-interpolation-filters="sRGB" filterUnits="userSpaceOnUse"><feFlood flood-opacity="0" result="BackgroundImageFix"/><feColorMatrix in="SourceAlpha" result="hardAlpha" values="0 0 0 0 0 0 0 0 0 0 0 0 0 0 0 0 0 0 127 0"/><feOffset dy="4"/><feGaussianBlur stdDeviation="4"/><feComposite in2="hardAlpha" operator="out"/><feColorMatrix values="0 0 0 0 0.148194 0 0 0 0 0.235583 0 0 0 0 0.585139 0 0 0 0.13 0"/><feBlend in2="BackgroundImageFix" result="effect1_dropShadow_50_9070"/><feBlend in="SourceGraphic" in2="effect1_dropShadow_50_9070" result="shape"/></filter><filter id="x" x="17" y="33.5" width="19.125" height="21" color-interpolation-filters="sRGB" filterUnits="userSpaceOnUse"><feFlood flood-opacity="0" result="BackgroundImageFix"/><feColorMatrix in="SourceAlpha" result="hardAlpha" values="0 0 0 0 0 0 0 0 0 0 0 0 0 0 0 0 0 0 127 0"/><feOffset dy="4"/><feGaussianBlur stdDeviation="4"/><feComposite in2="hardAlpha" operator="out"/><feColorMatrix values="0 0 0 0 0.148194 0 0 0 0 0.235583 0 0 0 0 0.585139 0 0 0 0.13 0"/><feBlend in2="BackgroundImageFix" result="effect1_dropShadow_50_9070"/><feBlend in="SourceGraphic" in2="effect1_dropShadow_50_9070" result="shape"/></filter><filter id="w" x="38.875" y="36" width="23.5" height="22.25" color-interpolation-filters="sRGB" filterUnits="userSpaceOnUse"><feFlood flood-opacity="0" result="BackgroundImageFix"/><feColorMatrix in="SourceAlpha" result="hardAlpha" values="0 0 0 0 0 0 0 0 0 0 0 0 0 0 0 0 0 0 127 0"/><feOffset dy="4"/><feGaussianBlur stdDeviation="4"/><feComposite in2="hardAlpha" operator="out"/><feColorMatrix values="0 0 0 0 0.148194 0 0 0 0 0.235583 0 0 0 0 0.585139 0 0 0 0.13 0"/><feBlend in2="BackgroundImageFix" result="effect1_dropShadow_50_9070"/><feBlend in="SourceGraphic" in2="effect1_dropShadow_50_9070" result="shape"/></filter><filter id="v" x="43.876" y="33.5" width="19.125" height="21" color-interpolation-filters="sRGB" filterUnits="userSpaceOnUse"><feFlood flood-opacity="0" result="BackgroundImageFix"/><feColorMatrix in="SourceAlpha" result="hardAlpha" values="0 0 0 0 0 0 0 0 0 0 0 0 0 0 0 0 0 0 127 0"/><feOffset dy="4"/><feGaussianBlur stdDeviation="4"/><feComposite in2="hardAlpha" operator="out"/><feColorMatrix values="0 0 0 0 0.148194 0 0 0 0 0.235583 0 0 0 0 0.585139 0 0 0 0.13 0"/><feBlend in2="BackgroundImageFix" result="effect1_dropShadow_50_9070"/><feBlend in="SourceGraphic" in2="effect1_dropShadow_50_9070" result="shape"/></filter><filter id="u" x="43.876" y="39.75" width="19.125" height="21" color-interpolation-filters="sRGB" filterUnits="userSpaceOnUse"><feFlood flood-opacity="0" result="BackgroundImageFix"/><feColorMatrix in="SourceAlpha" result="hardAlpha" values="0 0 0 0 0 0 0 0 0 0 0 0 0 0 0 0 0 0 127 0"/><feOffset dy="4"/><feGaussianBlur stdDeviation="4"/><feComposite in2="hardAlpha" operator="out"/><feColorMatrix values="0 0 0 0 0.148194 0 0 0 0 0.235583 0 0 0 0 0.585139 0 0 0 0.13 0"/><feBlend in2="BackgroundImageFix" result="effect1_dropShadow_50_9070"/><feBlend in="SourceGraphic" in2="effect1_dropShadow_50_9070" result="shape"/></filter><filter id="t" x="38.25" y="39.75" width="19.125" height="21" color-interpolation-filters="sRGB" filterUnits="userSpaceOnUse"><feFlood flood-opacity="0" result="BackgroundImageFix"/><feColorMatrix in="SourceAlpha" result="hardAlpha" values="0 0 0 0 0 0 0 0 0 0 0 0 0 0 0 0 0 0 127 0"/><feOffset dy="4"/><feGaussianBlur stdDeviation="4"/><feComposite in2="hardAlpha" operator="out"/><feColorMatrix values="0 0 0 0 0.148194 0 0 0 0 0.235583 0 0 0 0 0.585139 0 0 0 0.13 0"/><feBlend in2="BackgroundImageFix" result="effect1_dropShadow_50_9070"/><feBlend in="SourceGraphic" in2="effect1_dropShadow_50_9070" result="shape"/></filter><filter id="s" x="38.25" y="33.5" width="19.125" height="21" color-interpolation-filters="sRGB" filterUnits="userSpaceOnUse"><feFlood flood-opacity="0" result="BackgroundImageFix"/><feColorMatrix in="SourceAlpha" result="hardAlpha" values="0 0 0 0 0 0 0 0 0 0 0 0 0 0 0 0 0 0 127 0"/><feOffset dy="4"/><feGaussianBlur stdDeviation="4"/><feComposite in2="hardAlpha" operator="out"/><feColorMatrix values="0 0 0 0 0.148194 0 0 0 0 0.235583 0 0 0 0 0.585139 0 0 0 0.13 0"/><feBlend in2="BackgroundImageFix" result="effect1_dropShadow_50_9070"/><feBlend in="SourceGraphic" in2="effect1_dropShadow_50_9070" result="shape"/></filter><radialGradient id="a" cx="0" cy="0" r="1" gradientTransform="matrix(-8.43752 .31234 -1.71786 -46.40622 50 43.125)" gradientUnits="userSpaceOnUse"><stop stop-color="#ADB6DA" offset="0"/><stop stop-color="#626D97" stop-opacity="0" offset="1"/></radialGradient><radialGradient id="c" cx="0" cy="0" r="1" gradientTransform="rotate(131.53 7.902 24.987) scale(9.3753 9.7391)" gradientUnits="userSpaceOnUse"><stop stop-color="#fff" offset="0"/><stop stop-color="#fff" stop-opacity="0" offset="1"/></radialGradient><radialGradient id="m" cx="0" cy="0" r="1" gradientTransform="rotate(131.53 18.527 29.77) scale(9.3753 9.7391)" gradientUnits="userSpaceOnUse"><stop stop-color="#fff" offset="0"/><stop stop-color="#fff" stop-opacity="0" offset="1"/></radialGradient></defs></svg>