<svg fill="none" viewBox="0 0 80 80" xmlns="http://www.w3.org/2000/svg"><rect width="80" height="80" rx="11.429" fill="#1FA6B4"/><path d="M45.052 18.84c-3.114 1.334-7.609 1.334-10.723 0-2.53-1.084-5.36-1.185-7.972-.049-5.511 2.398-7.983 9.403-5.584 15.722v.005l.748 1.627a81.263 81.263 0 015.686 17.195l1.188 5.637a3.644 3.644 0 003.528 2.755 3.646 3.646 0 003.595-3.077l1.675-10.463c.197-1.232 1.255-2.138 2.498-2.138s2.3.906 2.498 2.138l1.674 10.463a3.646 3.646 0 003.595 3.077 3.644 3.644 0 003.528-2.755l1.188-5.637a81.25 81.25 0 015.686-17.195l.749-1.627v-.005c2.398-6.319-.074-13.325-5.585-15.722-2.611-1.136-5.442-1.035-7.972.049z" clip-rule="evenodd" fill="url(#a)" fill-rule="evenodd"/><mask id="c" x="19" y="17" width="41" height="45" style="mask-type:alpha" maskUnits="userSpaceOnUse"><path d="M45.052 18.84c-3.114 1.334-7.609 1.334-10.723 0-2.53-1.084-5.36-1.185-7.972-.049-5.511 2.398-7.983 9.403-5.584 15.722v.005l.748 1.627a81.263 81.263 0 015.686 17.195l1.188 5.637a3.644 3.644 0 003.528 2.755 3.646 3.646 0 003.595-3.077l1.675-10.463c.197-1.232 1.255-2.138 2.498-2.138s2.3.906 2.498 2.138l1.674 10.463a3.646 3.646 0 003.595 3.077 3.644 3.644 0 003.528-2.755l1.188-5.637a81.25 81.25 0 015.686-17.195l.749-1.627v-.005c2.398-6.319-.074-13.325-5.585-15.722-2.611-1.136-5.442-1.035-7.972.049z" clip-rule="evenodd" fill="url(#a)" fill-rule="evenodd"/></mask><g mask="url(#c)"><path d="M33.607 23.524c0-.619-.503-1.11-1.094-1.292a4.093 4.093 0 01-2.883-3.91v-.681c0-1.883 1.526-1.534 3.409-1.534a3.4 3.4 0 012.507 1.1 6.229 6.229 0 014.311-1.725c1.671 0 3.19 1.28 4.31 2.35a3.409 3.409 0 015.916 2.31v.68a4.092 4.092 0 01-3.41 4.035c-.312.053-.566.308-.566.625a6.25 6.25 0 01-12.5 0v-1.958z" fill="url(#b)"/></g><defs><linearGradient id="a" x1="25.107" x2="49.024" y1="17.982" y2="59.982" gradientUnits="userSpaceOnUse"><stop stop-color="#F0F6F9" offset="0"/><stop stop-color="#CDDFF2" offset="1"/></linearGradient><linearGradient id="b" x1="48.379" x2="41.685" y1="15.084" y2="41.63" gradientUnits="userSpaceOnUse"><stop stop-color="#E6F0F8" offset="0"/><stop stop-color="#6F93BA" offset="1"/></linearGradient></defs></svg>