<svg fill="none" viewBox="0 0 80 80" xmlns="http://www.w3.org/2000/svg"><rect width="80" height="80" rx="11.429" fill="#1FA6B4"/><path d="M21.312 24.375a3.187 3.187 0 00-3.187 3.187v5.673a6.202 6.202 0 006.227 6.202l15.218-.06c.283-.001.563.062.818.184l17.67 8.48a2.097 2.097 0 002.295-3.464l-15.01-13.245a5.625 5.625 0 00-5.087-1.24l-14.394 3.599a2.5 2.5 0 01-3.087-2.115l-.83-6.642a.637.637 0 00-.633-.559z" fill="url(#j)"/><mask id="l" x="18" y="24" width="44" height="25" style="mask-type:alpha" maskUnits="userSpaceOnUse"><path d="M21.312 24.375a3.187 3.187 0 00-3.187 3.187v5.673a6.202 6.202 0 006.227 6.202l15.218-.06c.283-.001.563.062.818.184l17.67 8.48a2.097 2.097 0 002.295-3.464l-15.01-13.245a5.625 5.625 0 00-5.087-1.24l-14.394 3.599a2.5 2.5 0 01-3.087-2.115l-.83-6.642a.637.637 0 00-.633-.559z" fill="url(#i)"/></mask><g mask="url(#l)"><path fill="url(#h)" d="M36.25 29.375h9.375v12.5H36.25z"/><path fill="url(#g)" d="M38.125 29.375h3.125v12.5h-3.125z"/><path transform="rotate(195 29.579 42.066)" fill="url(#f)" d="M29.579 42.066h3.125v12.5h-3.125z"/></g><path d="M23.75 21.312a3.187 3.187 0 013.187-3.187h5.673a6.202 6.202 0 016.202 6.227l-.06 15.218c-.001.283.062.563.184.818l8.48 17.67a2.097 2.097 0 01-3.464 2.295l-13.245-15.01a5.625 5.625 0 01-1.24-5.087l3.599-14.394a2.5 2.5 0 00-2.115-3.087l-6.642-.83a.637.637 0 01-.559-.633z" fill="url(#e)"/><mask id="k" x="23" y="18" width="25" height="44" style="mask-type:alpha" maskUnits="userSpaceOnUse"><path d="M23.75 21.312a3.187 3.187 0 013.187-3.187h5.673a6.202 6.202 0 016.202 6.227l-.06 15.218c-.001.283.062.563.184.818l8.48 17.67a2.097 2.097 0 01-3.464 2.295l-13.245-15.01a5.625 5.625 0 01-1.24-5.087l3.599-14.394a2.5 2.5 0 00-2.115-3.087l-6.642-.83a.637.637 0 01-.559-.633z" fill="url(#d)"/></mask><g mask="url(#k)"><path d="M29.156 24.375h3.969l4.062 28.438-9.18-4.099 1.149-24.339z" fill="url(#c)"/></g><g filter="url(#m)"><path d="M36.365 36.957a1.875 1.875 0 000-2.652l-.443-.442a1.875 1.875 0 00-2.651 0l-.659.658a1.875 1.875 0 000 2.652l.443.442c.732.733 1.92.733 2.652 0l.658-.658z" fill="url(#b)"/></g><path d="M35.653 36.127a.625.625 0 000-.884l-.669-.669a.625.625 0 00-.884 0l-.777.777a.625.625 0 000 .884l.669.67c.244.243.64.243.884 0l.777-.778z" fill="url(#a)"/><defs><linearGradient id="j" x1="18.125" x2="61.875" y1="28.75" y2="41.25" gradientUnits="userSpaceOnUse"><stop stop-color="#DFE3F3" offset="0"/><stop stop-color="#CCD0E3" offset="1"/></linearGradient><linearGradient id="i" x1="18.125" x2="93.5" y1="28.75" y2="53.5" gradientUnits="userSpaceOnUse"><stop stop-color="#fff" offset="0"/><stop stop-color="#CCD0E3" offset="1"/></linearGradient><linearGradient id="h" x1="33.571" x2="40.938" y1="34.375" y2="34.375" gradientUnits="userSpaceOnUse"><stop stop-color="#9099C4" offset="0"/><stop stop-color="#9099C4" stop-opacity="0" offset="1"/></linearGradient><linearGradient id="g" x1="37.232" x2="39.688" y1="34.375" y2="34.375" gradientUnits="userSpaceOnUse"><stop stop-color="#9099C4" offset="0"/><stop stop-color="#9099C4" stop-opacity="0" offset="1"/></linearGradient><linearGradient id="f" x1="28.686" x2="31.142" y1="47.066" y2="47.066" gradientUnits="userSpaceOnUse"><stop stop-color="#9099C4" offset="0"/><stop stop-color="#9099C4" stop-opacity="0" offset="1"/></linearGradient><linearGradient id="e" x1="29.688" x2="40.625" y1="17.188" y2="61.25" gradientUnits="userSpaceOnUse"><stop stop-color="#E9ECF7" offset="0"/><stop stop-color="#CCD0E3" offset="1"/></linearGradient><linearGradient id="d" x1="29.688" x2="58" y1="17.188" y2="90" gradientUnits="userSpaceOnUse"><stop stop-color="#fff" offset="0"/><stop stop-color="#CCD0E3" offset="1"/></linearGradient><linearGradient id="c" x1="24.375" x2="32.812" y1="35.625" y2="36.25" gradientUnits="userSpaceOnUse"><stop stop-color="#fff" offset="0"/><stop stop-color="#fff" stop-opacity="0" offset="1"/></linearGradient><linearGradient id="b" x1="33.191" x2="35.891" y1="34.056" y2="37.527" gradientUnits="userSpaceOnUse"><stop stop-color="#F7F7FB" offset="0"/><stop stop-color="#DEE1F0" offset="1"/></linearGradient><linearGradient id="a" x1="26.25" x2="35.192" y1="25.625" y2="36.636" gradientUnits="userSpaceOnUse"><stop stop-color="#C5CAE2" offset="0"/><stop stop-color="#D1D5E7" offset="1"/></linearGradient><filter id="m" x="30.413" y="32.213" width="9.251" height="9.251" color-interpolation-filters="sRGB" filterUnits="userSpaceOnUse"><feFlood flood-opacity="0" result="BackgroundImageFix"/><feColorMatrix in="SourceAlpha" result="hardAlpha" values="0 0 0 0 0 0 0 0 0 0 0 0 0 0 0 0 0 0 127 0"/><feOffset dx=".55" dy="1.1"/><feGaussianBlur stdDeviation="1.1"/><feComposite in2="hardAlpha" operator="out"/><feColorMatrix values="0 0 0 0 0.0684722 0 0 0 0 0.0823278 0 0 0 0 0.414861 0 0 0 0.15 0"/><feBlend in2="BackgroundImageFix" result="effect1_dropShadow_50_9079"/><feBlend in="SourceGraphic" in2="effect1_dropShadow_50_9079" result="shape"/></filter></defs></svg>