<svg fill="none" viewBox="0 0 80 80" xmlns="http://www.w3.org/2000/svg"><rect width="80" height="80" rx="11.429" fill="#1FA6B4"/><path d="M34.593 19.596c3.14 1.317 7.673 1.317 10.813 0 2.552-1.07 5.406-1.169 8.04-.048 5.558 2.366 8.05 9.282 5.629 15.519h.001l-1.62 3.997a2.5 2.5 0 01-2.317 1.56H24.86a2.5 2.5 0 01-2.317-1.56l-1.62-3.996.001-.001c-2.42-6.237.072-13.153 5.63-15.519 2.634-1.121 5.488-1.022 8.04.048z" fill="url(#h)"/><path d="M34.593 19.596c3.14 1.317 7.673 1.317 10.813 0 2.552-1.07 5.406-1.169 8.04-.048 5.558 2.366 8.05 9.282 5.629 15.519h.001l-1.62 3.997a2.5 2.5 0 01-2.317 1.56H24.86a2.5 2.5 0 01-2.317-1.56l-1.62-3.996.001-.001c-2.42-6.237.072-13.153 5.63-15.519 2.634-1.121 5.488-1.022 8.04.048z" fill="url(#g)" fill-opacity=".1"/><path d="M34.593 19.596c3.14 1.317 7.673 1.317 10.813 0 2.552-1.07 5.406-1.169 8.04-.048 5.558 2.366 8.05 9.282 5.629 15.519h.001l-1.62 3.997a2.5 2.5 0 01-2.317 1.56H24.86a2.5 2.5 0 01-2.317-1.56l-1.62-3.996.001-.001c-2.42-6.237.072-13.153 5.63-15.519 2.634-1.121 5.488-1.022 8.04.048z" fill="url(#f)" fill-opacity=".05"/><path d="M28.75 42.5h22.5l-4.7 14.036a6.907 6.907 0 01-13.1 0L28.75 42.5z" fill="url(#e)"/><path d="M22.5 42.188c0-.863.7-1.563 1.563-1.563h31.875a1.563 1.563 0 010 3.126H24.061c-.862 0-1.562-.7-1.562-1.563z" fill="url(#d)"/><path d="M31.875 56.25c0-.69.56-1.25 1.25-1.25h13.75a1.25 1.25 0 110 2.5h-13.75c-.69 0-1.25-.56-1.25-1.25z" fill="url(#c)"/><path d="M30.312 51.875c0-.69.56-1.25 1.25-1.25h16.875a1.25 1.25 0 110 2.5H31.562c-.69 0-1.25-.56-1.25-1.25z" fill="url(#b)"/><path d="M28.75 47.5c0-.69.56-1.25 1.25-1.25h20a1.25 1.25 0 110 2.5H30c-.69 0-1.25-.56-1.25-1.25z" fill="url(#a)"/><defs><linearGradient id="h" x1="25.294" x2="48.633" y1="18.75" y2="60.631" gradientUnits="userSpaceOnUse"><stop stop-color="#F0F6F9" offset="0"/><stop stop-color="#CDDFF2" offset="1"/></linearGradient><linearGradient id="g" x1="39.688" x2="39.688" y1="41.562" y2="39.688" gradientUnits="userSpaceOnUse"><stop stop-color="#065099" offset=".242"/><stop stop-color="#DFEBF6" stop-opacity=".47" offset="1"/></linearGradient><linearGradient id="f" x1="40" x2="40" y1="40.625" y2="38.125" gradientUnits="userSpaceOnUse"><stop stop-color="#065099" offset="0"/><stop stop-color="#065099" stop-opacity="0" offset="1"/></linearGradient><linearGradient id="e" x1="51.25" x2="25.653" y1="56.42" y2="47.952" gradientUnits="userSpaceOnUse"><stop stop-color="#BCC1D6" offset="0"/><stop stop-color="#E9ECFA" offset="1"/></linearGradient><linearGradient id="d" x1="33.771" x2="43.259" y1="40.625" y2="42.191" gradientUnits="userSpaceOnUse"><stop stop-color="#F0F3FF" offset="0"/><stop stop-color="#E1E5F5" offset="1"/></linearGradient><linearGradient id="c" x1="37.108" x2="40.427" y1="55" y2="55.871" gradientUnits="userSpaceOnUse"><stop stop-color="#F1F4FF" offset="0"/><stop stop-color="#D5DAF0" offset="1"/></linearGradient><linearGradient id="b" x1="37.881" x2="41.9" y1="50.625" y2="51.778" gradientUnits="userSpaceOnUse"><stop stop-color="#F1F4FF" offset="0"/><stop stop-color="#D5DAF0" offset="1"/></linearGradient><linearGradient id="a" x1="37.812" x2="42.507" y1="46.25" y2="47.751" gradientUnits="userSpaceOnUse"><stop stop-color="#F1F4FF" offset="0"/><stop stop-color="#D5DAF0" offset="1"/></linearGradient></defs></svg>