<svg fill="none" viewBox="0 0 80 80" xmlns="http://www.w3.org/2000/svg"><rect width="80" height="80" rx="11.429" fill="#1FA6B4"/><path d="M23.75 37.5a28.172 28.172 0 0013.316 3.346h5.49c4.722 0 9.362-1.231 13.463-3.571l-3.414 20.85H25.793L23.749 37.5z" fill="url(#b)"/><path d="M19.594 40.005a2.926 2.926 0 015.744-.964l3.969 14.753a4.646 4.646 0 008.362 1.354l.034-.052a3.455 3.455 0 00.557-1.58l.498-5.28c.064-.686 1.027-.779 1.221-.118l1.68 5.71c.107.363.268.708.476 1.023l.196.297a4.645 4.645 0 008.362-1.354l3.969-14.753a2.926 2.926 0 015.744.964L59.32 55.523a7.5 7.5 0 01-7.482 6.976H28.162a7.5 7.5 0 01-7.482-6.976l-1.086-15.518z" fill="#F7A6A5"/><path d="M39.77 19.296c-2.272 1.438-5.795 2.01-8.406 1.365-2.12-.524-4.352-.243-6.255.976-4.017 2.573-5.067 8.354-2.386 12.98v.004l.794 1.175a64.036 64.036 0 016.636 12.696l1.645 4.248a2.892 2.892 0 005.543-1.159l-.013-8.378a2.01 2.01 0 013.916-.636l2.639 7.952a2.892 2.892 0 005.624-.654l.217-4.55a64.03 64.03 0 012.279-14.144l.38-1.365v-.004c1.08-5.237-1.746-10.39-6.37-11.559-2.19-.554-4.397-.115-6.243 1.053z" clip-rule="evenodd" fill="url(#a)" fill-rule="evenodd"/><defs><linearGradient id="b" x1="41.875" x2="41.581" y1="37.5" y2="57.188" gradientUnits="userSpaceOnUse"><stop stop-color="#C15D5D" offset="0"/><stop stop-color="#D7908E" offset=".829"/></linearGradient><linearGradient id="a" x1="24.026" x2="47.982" y1="21.165" y2="50.99" gradientUnits="userSpaceOnUse"><stop stop-color="#F0F6F9" offset="0"/><stop stop-color="#CDDFF2" offset="1"/></linearGradient></defs></svg>