<svg fill="none" viewBox="0 0 80 80" xmlns="http://www.w3.org/2000/svg"><rect width="80" height="80" rx="11.429" fill="#1FA6B4"/><path d="M45.195 18.983c-3.114 1.334-7.609 1.334-10.723 0-2.53-1.084-5.36-1.185-7.972-.049-5.511 2.397-7.983 9.403-5.584 15.722v.005l.748 1.627a81.265 81.265 0 015.686 17.195l1.188 5.637a3.644 3.644 0 003.528 2.755 3.646 3.646 0 003.595-3.077l1.675-10.463a2.534 2.534 0 012.498-2.139c1.242 0 2.3.906 2.498 2.139l1.674 10.463a3.646 3.646 0 003.595 3.077 3.644 3.644 0 003.528-2.755l1.188-5.637a81.252 81.252 0 015.686-17.195l.749-1.627v-.005c2.398-6.32-.074-13.325-5.585-15.722-2.611-1.136-5.441-1.035-7.972.049z" clip-rule="evenodd" fill="url(#a)" fill-rule="evenodd"/><defs><linearGradient id="a" x1="25.25" x2="49.167" y1="18.125" y2="60.125" gradientUnits="userSpaceOnUse"><stop stop-color="#F0F6F9" offset="0"/><stop stop-color="#CDDFF2" offset="1"/></linearGradient></defs></svg>