<svg aria-hidden="true" style="position:absolute;width:0;height:0" xmlns="http://www.w3.org/2000/svg" overflow="hidden"><defs><symbol id="icon-arrow-left" viewBox="0 0 32 32"><path fill="none" stroke="inherit" stroke-width="3" stroke-linecap="round" stroke-linejoin="round" d="M22.5 3.167l-13 12.917 13 12.917"/></symbol><symbol id="icon-arrow-right" viewBox="0 0 32 32"><path fill="none" stroke="inherit" stroke-width="3" stroke-linecap="round" stroke-linejoin="round" d="M9.5 28.833l13-12.917-13-12.917"/></symbol><symbol id="icon-close" viewBox="0 0 32 32"><path fill="none" stroke="inherit" stroke-width="3" stroke-linecap="round" stroke-linejoin="round" d="M28.169 3.834l-24.5 24.5m24.5 0l-24.5-24.5"/></symbol><symbol id="icon-email" viewBox="0 0 32 32"><path fill="inherit" stroke="#inherit" stroke-width="2.4" stroke-miterlimit="10" d="M26.373 26.68H5.627a3.015 3.015 0 01-2.96-3.053V8.387a3.015 3.015 0 012.96-3.053h20.746a3.015 3.015 0 012.961 3.053v15.24a3.011 3.011 0 01-2.961 3.053z"/><path fill="none" stroke="inherit" stroke-width="2.4" stroke-linejoin="round" d="M2.667 10.667L16 16l13.333-5.333"/></symbol><symbol id="icon-navigate" viewBox="0 0 32 32"><path fill="inherit" d="M16 29.333s-10.667-5.24-10.667-16a10.666 10.666 0 0121.333 0c0 10.76-10.667 16-10.667 16z"/><path fill="#fff" stroke="inherit" stroke-miterlimit="10" d="M16 17.334a4 4 0 100-8 4 4 0 000 8z"/></symbol><symbol id="icon-phone" viewBox="0 0 32 32"><path fill="inherit" stroke="inherit" d="M13.567 18.311a28.805 28.805 0 003.177 2.849 3.064 3.064 0 003.505.157l.755-.47a3.132 3.132 0 013.675.099l3.533 2.849a1.538 1.538 0 01.142 2.294 9.246 9.246 0 01-10.598 1.78 29.518 29.518 0 01-7.921-5.698 29.38 29.38 0 01-5.698-7.907A9.288 9.288 0 015.903 3.651a1.542 1.542 0 011.175-.45 1.547 1.547 0 011.118.578l2.849 3.547a3.085 3.085 0 01.199 3.547l-.556.869a3.096 3.096 0 00.142 3.504 30.766 30.766 0 002.778 3.191l-.043-.128z"/></symbol><symbol id="icon-time" viewBox="0 0 32 32"><path fill="inherit" stroke="inherit" d="M16 28c6.627 0 12-5.373 12-12S22.627 4 16 4 4 9.373 4 16s5.373 12 12 12z"/><path fill="none" stroke="inherit" stroke-width="2.4" stroke-linecap="round" stroke-linejoin="round" d="M16 9v7h7"/></symbol></defs></svg>