<svg aria-hidden="true" style="position:absolute;width:0;height:0" xmlns="http://www.w3.org/2000/svg" overflow="hidden"><defs><symbol id="icon-arrow-left" viewBox="0 0 32 32"><path fill="none" stroke="inherit" stroke-width="3" stroke-linecap="round" stroke-linejoin="round" d="M22.5 3.167l-13 12.917 13 12.917"/></symbol><symbol id="icon-arrow-right" viewBox="0 0 32 32"><path fill="none" stroke="inherit" stroke-width="3" stroke-linecap="round" stroke-linejoin="round" d="M9.5 28.833l13-12.917-13-12.917"/></symbol><symbol id="icon-close" viewBox="0 0 32 32"><path fill="none" stroke="inherit" stroke-width="4" stroke-linecap="round" stroke-linejoin="round" d="M28.169 3.834l-24.5 24.5m24.5 0l-24.5-24.5"/></symbol><symbol id="icon-email" viewBox="0 0 32 32"><path fill="inherit" stroke="#inherit" stroke-width="2.4" stroke-miterlimit="10" d="M26.373 26.68H5.627a3.015 3.015 0 01-2.96-3.053V8.387a3.015 3.015 0 012.96-3.053h20.746a3.015 3.015 0 012.961 3.053v15.24a3.011 3.011 0 01-2.961 3.053z"/><path fill="none" stroke="inherit" stroke-width="2.4" stroke-linejoin="round" d="M2.667 10.667L16 16l13.333-5.333"/></symbol><symbol id="icon-navigate" viewBox="0 0 32 32"><path fill="inherit" d="M16 29.333s-10.667-5.24-10.667-16a10.666 10.666 0 0121.333 0c0 10.76-10.667 16-10.667 16z"/><path fill="#fff" stroke="inherit" stroke-miterlimit="10" d="M16 17.334a4 4 0 100-8 4 4 0 000 8z"/></symbol><symbol id="icon-navigate2" viewBox="0 0 32 32"><path fill="inherit" d="M16 29.333s-10.667-5.24-10.667-16a10.666 10.666 0 0121.333 0c0 10.76-10.667 16-10.667 16z"/><path fill="#6e6bd9" stroke="inherit" stroke-miterlimit="10" d="M16 17.334a4 4 0 100-8 4 4 0 000 8z"/></symbol><symbol id="icon-phone" viewBox="0 0 32 32"><path fill="inherit" stroke="inherit" d="M13.567 18.311a28.805 28.805 0 003.177 2.849 3.064 3.064 0 003.505.157l.755-.47a3.132 3.132 0 013.675.099l3.533 2.849a1.538 1.538 0 01.142 2.294 9.246 9.246 0 01-10.598 1.78 29.518 29.518 0 01-7.921-5.698 29.38 29.38 0 01-5.698-7.907A9.288 9.288 0 015.903 3.651a1.542 1.542 0 011.175-.45 1.547 1.547 0 011.118.578l2.849 3.547a3.085 3.085 0 01.199 3.547l-.556.869a3.096 3.096 0 00.142 3.504 30.766 30.766 0 002.778 3.191l-.043-.128z"/></symbol><symbol id="icon-time" viewBox="0 0 32 32"><path fill="inherit" stroke="inherit" d="M16 28c6.627 0 12-5.373 12-12S22.627 4 16 4 4 9.373 4 16s5.373 12 12 12z"/><path fill="none" stroke="inherit" stroke-width="2.4" stroke-linecap="round" stroke-linejoin="round" d="M16 9v7h7"/></symbol><symbol id="icon-logo-dent" viewBox="0 0 101 32"><path fill="var(--color1, #4b5563)" d="M4.882 24.435c-.972 0-1.83-.146-2.575-.437-.729-.291-1.295-.688-1.7-1.19C.202 22.29 0 21.723 0 21.108v-.267c0-.162.081-.243.243-.243h1.749c.162 0 .243.081.243.243v.121c0 .453.243.85.729 1.19.502.34 1.133.51 1.895.51.729 0 1.32-.154 1.773-.461.453-.324.68-.729.68-1.214 0-.47-.21-.818-.631-1.044-.421-.243-1.101-.494-2.04-.753-.923-.259-1.7-.518-2.332-.777A4.65 4.65 0 01.73 17.271c-.421-.502-.632-1.142-.632-1.919 0-1.085.421-1.943 1.263-2.575.858-.648 1.992-.972 3.4-.972.939 0 1.765.154 2.478.461.729.291 1.287.704 1.676 1.239s.583 1.134.583 1.797v.073c0 .162-.081.243-.243.243h-1.7c-.162 0-.243-.081-.243-.243v-.073c0-.47-.235-.858-.704-1.166-.453-.324-1.077-.486-1.87-.486-.712 0-1.295.138-1.749.413-.437.275-.656.648-.656 1.117s.211.826.632 1.069c.437.243 1.133.502 2.089.777.939.259 1.716.518 2.332.777a3.988 3.988 0 011.603 1.117c.437.486.656 1.125.656 1.919 0 1.101-.437 1.975-1.312 2.623-.858.648-2.008.972-3.449.972zm19.123-12.679c1.231 0 2.202.372 2.915 1.117.713.729 1.069 1.749 1.069 3.06v8.113c0 .162-.081.243-.243.243h-1.822c-.162 0-.243-.081-.243-.243v-7.627c0-.81-.227-1.449-.68-1.919-.437-.486-1.028-.729-1.773-.729s-1.352.235-1.822.704c-.47.47-.704 1.101-.704 1.895v7.675c0 .162-.081.243-.243.243h-1.822c-.162 0-.243-.081-.243-.243v-7.627c0-.81-.227-1.449-.68-1.919-.437-.486-1.028-.729-1.773-.729s-1.344.235-1.797.704c-.437.47-.656 1.101-.656 1.895v7.675c0 .162-.081.243-.243.243h-1.846c-.162 0-.243-.081-.243-.243V12.167c0-.162.081-.243.243-.243h1.846c.162 0 .243.081.243.243v.826c0 .032.008.057.024.073.032.016.065.008.097-.024.713-.858 1.749-1.287 3.109-1.287.826 0 1.53.162 2.113.486a3.21 3.21 0 011.36 1.385c.049.065.097.065.146 0a3.66 3.66 0 011.53-1.409 4.912 4.912 0 012.137-.461zm7.412-1.773c-.453 0-.826-.146-1.117-.437s-.437-.664-.437-1.117c0-.453.146-.826.437-1.117s.664-.437 1.117-.437c.453 0 .826.146 1.117.437s.437.664.437 1.117-.146.826-.437 1.117c-.291.291-.664.437-1.117.437zm-.971 14.282c-.162 0-.243-.081-.243-.243V12.169c0-.162.081-.243.243-.243h1.846c.162 0 .243.081.243.243v11.853c0 .162-.081.243-.243.243h-1.846zm4.782.024c-.162 0-.243-.081-.243-.243V7.529c0-.162.081-.243.243-.243h1.846c.162 0 .243.081.243.243v16.517c0 .162-.081.243-.243.243h-1.846zm14.266-7.724c.065.664.089 1.409.073 2.235 0 .162-.081.243-.243.243h-7.748c-.065 0-.097.032-.097.097 0 .551.049.972.146 1.263a2.66 2.66 0 001.069 1.53c.551.356 1.239.534 2.065.534 1.198 0 2.121-.494 2.769-1.482.081-.162.186-.186.316-.073l1.384.923c.113.097.138.202.073.316-.453.729-1.101 1.303-1.943 1.724-.826.421-1.765.632-2.818.632-1.182 0-2.178-.259-2.988-.777s-1.417-1.255-1.822-2.21c-.389-.955-.583-2.113-.583-3.473 0-1.182.089-2.081.267-2.696.291-1.117.874-2 1.749-2.647s1.935-.972 3.182-.972c1.636 0 2.858.413 3.668 1.239.81.81 1.303 2.008 1.482 3.595zm-5.149-2.817c-.696 0-1.271.178-1.724.534-.453.34-.761.802-.923 1.384-.113.356-.186.81-.219 1.36 0 .065.032.097.097.097h5.562c.065 0 .097-.032.097-.097-.032-.534-.081-.931-.146-1.19-.162-.632-.486-1.133-.972-1.506-.47-.389-1.061-.583-1.773-.583z"/><path fill="var(--color2, #6e6bd9)" d="M61.409 7.483c0-.162.081-.243.243-.243h1.846c.162 0 .243.081.243.243V24c0 .162-.081.243-.243.243h-1.846c-.162 0-.243-.081-.243-.243v-.802c0-.032-.016-.057-.049-.073-.016-.016-.04-.008-.073.024-.356.405-.777.721-1.263.947s-1.012.34-1.579.34c-1.166 0-2.137-.283-2.915-.85-.761-.583-1.32-1.401-1.676-2.453-.308-.858-.461-1.895-.461-3.109 0-1.133.13-2.113.389-2.939.34-1.069.899-1.903 1.676-2.502s1.773-.899 2.988-.899c.551 0 1.069.113 1.555.34a3.49 3.49 0 011.287.923c.032.032.057.04.073.024.032-.016.049-.04.049-.073V7.482zm-.607 13.626c.372-.68.559-1.7.559-3.06s-.202-2.396-.607-3.109c-.47-.826-1.158-1.239-2.065-1.239-.972 0-1.692.389-2.162 1.166-.518.81-.777 1.878-.777 3.206 0 1.247.202 2.251.607 3.012.47.891 1.239 1.336 2.307 1.336.939 0 1.652-.437 2.137-1.312zm15.271-4.591c.065.664.089 1.409.073 2.235 0 .162-.081.243-.243.243h-7.748c-.065 0-.097.032-.097.097 0 .55.049.972.146 1.263a2.66 2.66 0 001.069 1.53c.55.356 1.239.534 2.065.534 1.198 0 2.121-.494 2.769-1.482.081-.162.186-.186.316-.073l1.384.923c.113.097.138.202.073.316-.453.729-1.101 1.303-1.943 1.724-.826.421-1.765.631-2.818.631-1.182 0-2.178-.259-2.988-.777s-1.417-1.255-1.822-2.21c-.389-.955-.583-2.113-.583-3.473 0-1.182.089-2.081.267-2.696.291-1.117.874-2 1.749-2.648s1.935-.972 3.182-.972c1.635 0 2.858.413 3.668 1.239.81.81 1.304 2.008 1.482 3.595zm-5.149-2.817c-.696 0-1.271.178-1.725.534-.453.34-.761.801-.923 1.384-.113.356-.186.81-.219 1.36 0 .065.032.097.097.097h5.562c.065 0 .097-.032.097-.097-.032-.534-.081-.931-.146-1.19-.162-.631-.486-1.133-.972-1.506-.47-.389-1.061-.583-1.773-.583zm12.585-1.992c1.328 0 2.38.389 3.158 1.166.777.761 1.166 1.797 1.166 3.109v8.015c0 .162-.081.243-.243.243h-1.846c-.162 0-.243-.081-.243-.243v-7.554c0-.81-.235-1.465-.704-1.967s-1.093-.753-1.87-.753c-.761 0-1.385.251-1.87.753s-.729 1.15-.729 1.943v7.578c0 .162-.081.243-.243.243h-1.846c-.162 0-.243-.081-.243-.243V12.122c0-.162.081-.243.243-.243h1.846c.162 0 .243.081.243.243v.874c0 .032.008.057.024.073.032.016.057.008.073-.024.696-.891 1.725-1.336 3.085-1.336zm12.654 1.846c0 .162-.081.243-.243.243h-2.623c-.065 0-.097.032-.097.097v6.437c0 .68.154 1.174.462 1.482.308.291.785.437 1.433.437h.704c.162 0 .243.081.243.243V24c0 .162-.081.243-.243.243-.518.032-.891.049-1.117.049-1.231 0-2.162-.219-2.793-.656-.615-.453-.923-1.279-.923-2.477v-7.262c0-.065-.032-.097-.097-.097h-1.482c-.162 0-.243-.081-.243-.243v-1.433c0-.162.081-.243.243-.243h1.482c.065 0 .097-.032.097-.097V8.918c0-.162.081-.243.243-.243h1.749c.162 0 .243.081.243.243v2.866c0 .065.032.097.097.097h2.623c.162 0 .243.081.243.243v1.433z"/><path fill="var(--color1, #4b5563)" d="M26.815 20.694c.644 0 1.166.522 1.166 1.166v3.099c0 1.358-.444 2.897-1.714 3.891-1.479 1.158-3.618 2.196-6.204 2.25-2.609.054-5.545-.896-8.58-3.497a1.166 1.166 0 111.518-1.77c2.664 2.283 5.057 2.977 7.014 2.936 1.98-.041 3.645-.838 4.815-1.755.52-.407.82-1.14.82-2.055V21.86c0-.644.522-1.166 1.166-1.166z"/></symbol><symbol id="icon-return" viewBox="0 0 32 32"><path fill="#4b5563" d="M28 16a11.997 11.997 0 01-11.838 12h-.161a11.921 11.921 0 01-8.238-3.275.996.996 0 01-.248-1.084.997.997 0 01.907-.644 1.01 1.01 0 01.716.273 10.003 10.003 0 0015.276-1.873 9.997 9.997 0 00-.161-11.049 9.996 9.996 0 00-10.239-4.155 9.993 9.993 0 00-5.118 2.76l-3.322 3.045H9a.997.997 0 011 1 .997.997 0 01-1 1H3a.997.997 0 01-1-1v-6a.997.997 0 011-1 .997.997 0 011 1v3.725l3.531-3.225A12.001 12.001 0 0128 15.997z"/></symbol></defs></svg>