<?xml version="1.0" encoding="UTF-8"?>
<svg fill="none" viewBox="0 0 80 80" xmlns="http://www.w3.org/2000/svg">
<rect width="80" height="80" rx="11.429" fill="#1FA6B4"/>
<path d="m45.052 18.84c-3.1143 1.3343-7.6089 1.3343-10.723 0-2.5303-1.084-5.3606-1.1846-7.9721-0.0486-5.5111 2.3972-7.9829 9.4026-5.5843 15.722 6e-4 0.0014 6e-4 3e-3 0 0.0043l0.7485 1.6277c2.5303 5.5019 4.4375 11.27 5.6862 17.195l1.1878 5.637c0.4111 1.6205 1.8636 2.7546 3.5282 2.7546 1.7877 0 3.3109-1.304 3.5947-3.0772l1.6746-10.463c0.1972-1.2322 1.2557-2.1383 2.498-2.1383s2.3008 0.9061 2.498 2.1383l1.6745 10.463c0.2838 1.7732 1.8071 3.0772 3.5948 3.0772 1.6645 0 3.1171-1.1341 3.5281-2.7546l1.1878-5.637c1.2487-5.9258 3.1559-11.693 5.6862-17.195l0.7486-1.6277c-6e-4 -0.0013-6e-4 -0.0029-1e-4 -0.0043 2.3986-6.3194-0.0732-13.325-5.5843-15.722-2.6115-1.136-5.4418-1.0354-7.9721 0.0486z" clip-rule="evenodd" fill="url(#a)" fill-rule="evenodd"/>
<mask id="c" x="19" y="17" width="41" height="45" style="mask-type:alpha" maskUnits="userSpaceOnUse">
<path d="m45.052 18.84c-3.1143 1.3343-7.6089 1.3343-10.723 0-2.5303-1.084-5.3606-1.1846-7.9721-0.0486-5.5111 2.3972-7.9829 9.4026-5.5843 15.722 6e-4 0.0014 6e-4 3e-3 0 0.0043l0.7485 1.6277c2.5303 5.5019 4.4375 11.27 5.6862 17.195l1.1878 5.637c0.4111 1.6205 1.8636 2.7546 3.5282 2.7546 1.7877 0 3.3109-1.304 3.5947-3.0772l1.6746-10.463c0.1972-1.2322 1.2557-2.1383 2.498-2.1383s2.3008 0.9061 2.498 2.1383l1.6745 10.463c0.2838 1.7732 1.8071 3.0772 3.5948 3.0772 1.6645 0 3.1171-1.1341 3.5281-2.7546l1.1878-5.637c1.2487-5.9258 3.1559-11.693 5.6862-17.195l0.7486-1.6277c-6e-4 -0.0013-6e-4 -0.0029-1e-4 -0.0043 2.3986-6.3194-0.0732-13.325-5.5843-15.722-2.6115-1.136-5.4418-1.0354-7.9721 0.0486z" clip-rule="evenodd" fill="url(#a)" fill-rule="evenodd"/>
</mask>
<g mask="url(#c)">
<path d="m33.607 23.524c0-0.619-0.5028-1.1092-1.0943-1.2918-1.6697-0.5153-2.883-2.0708-2.883-3.9096v-0.6819c0-1.8827 1.5263-1.534 3.4091-1.534 0.9917 0 1.8845 0.4234 2.5075 1.0994 1.1214-1.0685 2.6394-1.7244 4.3107-1.7244 1.6712 0 3.1892 1.2809 4.3107 2.3494 0.6229-0.676 1.5157-1.0994 2.5075-1.0994 1.8827 0 3.409 1.5263 3.409 3.409v0.6819c0 2.0275-1.4749 3.7105-3.4104 4.0345-0.3128 0.0524-0.5668 0.3074-0.5668 0.6246 0 3.4517-2.7982 6.25-6.25 6.25s-6.25-2.7983-6.25-6.25v-1.9577z" fill="url(#b)"/>
</g>
<defs>
<linearGradient id="a" x1="25.107" x2="49.024" y1="17.982" y2="59.982" gradientUnits="userSpaceOnUse">
<stop stop-color="#F0F6F9" offset="0"/>
<stop stop-color="#CDDFF2" offset="1"/>
</linearGradient>
<linearGradient id="b" x1="48.379" x2="41.685" y1="15.084" y2="41.63" gradientUnits="userSpaceOnUse">
<stop stop-color="#E6F0F8" offset="0"/>
<stop stop-color="#6F93BA" offset="1"/>
</linearGradient>
</defs>
</svg>
