<?xml version="1.0" encoding="UTF-8"?>
<svg fill="none" viewBox="0 0 80 80" xmlns="http://www.w3.org/2000/svg">
<rect width="80" height="80" rx="11.429" fill="#1FA6B4"/>
<path d="m23.75 37.5c4.0949 2.1964 8.6696 3.3459 13.316 3.3459h5.4907c4.7215 0 9.3614-1.231 13.462-3.5714l-3.414 20.85h-26.812l-2.0434-20.625z" fill="url(#b)"/>
<path d="m19.594 40.005c-0.1184-1.6922 1.2223-3.1301 2.9186-3.1301 1.3232 0 2.4817 0.888 2.8254 2.1657l3.9687 14.753c0.4995 1.8565 2.091 3.2136 4.0031 3.4135 1.7232 0.1802 3.4035-0.6136 4.3588-2.0591l0.0345-0.0522c0.3126-0.4731 0.504-1.0158 0.5572-1.5803l0.4974-5.2802c0.0645-0.6853 1.0275-0.7781 1.2218-0.1178l1.68 5.7102c0.1068 0.363 0.2672 0.7081 0.4758 1.0238l0.196 0.2965c0.9552 1.4455 2.6355 2.2393 4.3587 2.0591 1.9122-0.1999 3.5037-1.557 4.0031-3.4135l3.9688-14.753c0.3437-1.2777 1.5022-2.1657 2.8253-2.1657 1.6963 0 3.0371 1.4379 2.9187 3.1301l-1.0862 15.518c-0.275 3.9294-3.5428 6.9764-7.4817 6.9764h-23.676c-3.9389 0-7.2067-3.047-7.4817-6.9764l-1.0861-15.518z" fill="#F7A6A5"/>
<path d="m39.77 19.296c-2.2722 1.4376-5.7955 2.0096-8.4058 1.3647-2.1209-0.5239-4.3522-0.2422-6.2554 0.9767-4.0164 2.5722-5.0664 8.3539-2.3854 12.98 6e-4 1e-3 7e-4 0.0023 5e-4 0.0034l0.793 1.175c2.6806 3.9717 4.9065 8.2301 6.6362 12.696l1.6453 4.248c0.5276 1.2124 1.81 1.9126 3.1148 1.7007 1.4014-0.2275 2.4302-1.439 2.428-2.859l-0.013-8.3783c-0.0016-0.9868 0.7134-1.8286 1.6872-1.9867 0.9738-0.1582 1.9184 0.4143 2.2291 1.3508l2.6384 7.9521c0.4472 1.3477 1.8064 2.1715 3.2078 1.944 1.3048-0.2119 2.2998-1.2818 2.4167-2.5988l0.2169-4.5504c0.2279-4.7834 0.9922-9.5273 2.2786-14.143l0.3805-1.3655c-6e-4 -1e-3 -8e-4 -0.0022-6e-4 -0.0034 1.0796-5.2371-1.7457-10.39-6.3696-11.559-2.1911-0.5541-4.397-0.1154-6.2432 1.0527z" clip-rule="evenodd" fill="url(#a)" fill-rule="evenodd"/>
<defs>
<linearGradient id="b" x1="41.875" x2="41.581" y1="37.5" y2="57.188" gradientUnits="userSpaceOnUse">
<stop stop-color="#C15D5D" offset="0"/>
<stop stop-color="#D7908E" offset=".82888"/>
</linearGradient>
<linearGradient id="a" x1="24.026" x2="47.982" y1="21.165" y2="50.99" gradientUnits="userSpaceOnUse">
<stop stop-color="#F0F6F9" offset="0"/>
<stop stop-color="#CDDFF2" offset="1"/>
</linearGradient>
</defs>
</svg>
