<?xml version="1.0" encoding="UTF-8"?>
<svg fill="none" viewBox="0 0 80 80" xmlns="http://www.w3.org/2000/svg">
<rect width="80" height="80" rx="11.429" fill="#1FA6B4"/>
<path d="m45.195 18.983c-3.1143 1.3342-7.6089 1.3342-10.723 0-2.5303-1.0841-5.3605-1.1846-7.972-0.0487-5.5111 2.3972-7.9829 9.4026-5.5843 15.722 5e-4 0.0014 5e-4 3e-3 -1e-4 0.0044l0.7486 1.6276c2.5303 5.502 4.4375 11.27 5.6862 17.195l1.1878 5.637c0.411 1.6205 1.8636 2.7546 3.5281 2.7546 1.7877 0 3.311-1.3039 3.5948-3.0772l1.6745-10.463c0.1973-1.2323 1.2558-2.1384 2.4981-2.1384 1.2422 0 2.3008 0.9061 2.498 2.1384l1.6745 10.463c0.2838 1.7733 1.807 3.0772 3.5947 3.0772 1.6646 0 3.1171-1.1341 3.5282-2.7546l1.1878-5.637c1.2487-5.9257 3.1559-11.693 5.6862-17.195l0.7485-1.6276c-6e-4 -0.0014-6e-4 -3e-3 0-0.0044 2.3986-6.3194-0.0732-13.325-5.5843-15.722-2.6115-1.1359-5.4418-1.0354-7.9721 0.0487z" clip-rule="evenodd" fill="url(#a)" fill-rule="evenodd"/>
<defs>
<linearGradient id="a" x1="25.25" x2="49.167" y1="18.125" y2="60.125" gradientUnits="userSpaceOnUse">
<stop stop-color="#F0F6F9" offset="0"/>
<stop stop-color="#CDDFF2" offset="1"/>
</linearGradient>
</defs>
</svg>
